<?xml version="1.0" encoding="UTF-8" standalone="no"?>
<svg
   xmlns:dc="http://purl.org/dc/elements/1.1/"
   xmlns:cc="http://creativecommons.org/ns#"
   xmlns:rdf="http://www.w3.org/1999/02/22-rdf-syntax-ns#"
   xmlns:svg="http://www.w3.org/2000/svg"
   xmlns="http://www.w3.org/2000/svg"
   xmlns:sodipodi="http://sodipodi.sourceforge.net/DTD/sodipodi-0.dtd"
   xmlns:inkscape="http://www.inkscape.org/namespaces/inkscape"
   width="560"
   height="165.7"
   version="1.1"
   id="svg8"
   sodipodi:docname="Petrobras.svg"
   inkscape:version="0.92.2 (5c3e80d, 2017-08-06)">
  <metadata
     id="metadata14">
    <rdf:RDF>
      <cc:Work
         rdf:about="">
        <dc:format>image/svg+xml</dc:format>
        <dc:type
           rdf:resource="http://purl.org/dc/dcmitype/StillImage" />
      </cc:Work>
    </rdf:RDF>
  </metadata>
  <defs
     id="defs12" />
  <sodipodi:namedview
     pagecolor="#ffffff"
     bordercolor="#666666"
     borderopacity="1"
     objecttolerance="10"
     gridtolerance="10"
     guidetolerance="10"
     inkscape:pageopacity="0"
     inkscape:pageshadow="2"
     inkscape:window-width="1842"
     inkscape:window-height="1051"
     id="namedview10"
     showgrid="false"
     inkscape:zoom="0.60535714"
     inkscape:cx="280"
     inkscape:cy="82.849998"
     inkscape:window-x="69"
     inkscape:window-y="-9"
     inkscape:window-maximized="1"
     inkscape:current-layer="svg8" />
  <!--<rect id="background" width="560" height="165.7" fill="#fff" />-->
  <rect
     x="35.6"
     y="70"
     width="95.5"
     height="60.5"
     fill="#008542"
     id="rect2" />
  <rect
     x="35.6"
     y="35.2"
     width="95.5"
     height="23.2"
     fill="#FDC82F"
     id="rect4" />
  <path
     id="BR"
     fill="#fff"
     d="m 130.9,70 0,-11.6 -95.5,0 0,11.6 18.4,0 -10.3,35.2 20.9,0 c 9,0 10.6,-2.1 12.5,-3.6 2.4,-2.1 3.7,-7 2.6,-10.4 -0.7,-2.4 -3,-3.8 -3.2,-3.8 2.7,-1.4 4.3,-4.3 4.6,-4.7 1,-2.2 1.9,-6.1 -0.8,-9.3 -2.1,-2.7 -6.3,-3.4 -9.3,-3.4 l 22.2,0 -10.2,35.4 10.3,0 3.8,-13.5 6,0 c 4.2,0 3.9,2.7 4,3.8 l 0.4,9.9 9.5,0 c 0,0 -0.4,-11.1 -0.4,-11.9 -0.1,-2.8 -2,-4.1 -3.6,-4.1 3,-0.9 5.7,-3.6 6.7,-5.4 1.3,-2.1 2.3,-5.4 1,-8.6 -1.7,-4.8 -6.4,-5.6 -9.5,-5.6 l 19.9,0 z m -29.8,7.1 7.5,0 c 3.5,0 3.7,2.4 3.7,3.1 0,1.7 -1.4,4.8 -5.8,4.8 l -7.6,0 c 0,0 2.1,-7.8 2.2,-7.9 z m -43,13.3 6.9,0 c 3.4,0 3.5,0.8 4,1.7 0.5,0.8 0.2,2.4 0,3 -0.5,0.6 -1.1,2.9 -5.5,2.9 l -7.6,0 c 0,0 2.2,-7.6 2.2,-7.6 z m 3.8,-13.3 8,0 c 1.5,0 3,1 3,2.6 0,2.3 -1.9,3.9 -4.4,3.9 l -8.5,0 1.9,-6.5 z" />
  <path
     id="PETROBRAS"
     style="fill:#008542;fill-rule:evenodd;"
     d="m 233.5,105.5 -29.5,0 10,-35.3 28.7,0 -2.2,8.2 -17.3,0 -1.5,5.1 14.7,0 -2.4,8.2 -14.5,0 -1.6,5.5 17.8,0 -2.2,8.3 z m -46.4,-11 0,0 c -0.6,0 -1.2,0 -1.8,0 l -5.9,0 -3,11 -11.6,0 10,-35.3 12.3,0 0,0 4.6,0 c 10.3,0 13.8,4.7 11.8,11.9 -2.1,7.1 -7.4,11.8 -16.4,12.4 z m 0,-16.1 0,0 -3.1,0 -2.1,7.8 5.2,0 0,0 c 2.5,-0.1 4.5,-1.2 5.3,-4.1 1,-3.2 -2.6,-3.7 -5.1,-3.7 l -0.2,0 z m 279,15.1 3.6,0 -0.1,-12.6 -3.5,6.1 -3.6,6.5 3.6,0 z m 0,-22.1 0.8,-1.2 11.7,0 2.6,35.3 -11.5,0 0,-4.6 -3.6,0 -8,0 -2.6,4.6 -10.6,0 -0.8,0 0.8,-1.1 21.2,-33.1 z m 58.5,9.1 c 0.9,-6.3 -2.1,-11.3 -11.9,-11.3 -8.8,0 -16.5,3.8 -18.6,11.4 -3.7,13.4 17.7,9.8 16,15.1 -0.4,1.7 -2.6,2.7 -5.5,2.7 -1.1,0 -2.2,-0.4 -3,-0.9 -0.8,-0.8 -1.2,-1.6 -1.1,-2.9 l -11.1,0 c -1.5,6.4 3,11.9 12.2,11.9 9.8,0 17.8,-4 20,-12.3 3.8,-12.7 -17.5,-9.5 -16,-14.8 0.3,-1.3 1.7,-2 4.3,-2 1,0 2.1,0.2 2.7,0.6 0.8,0.5 1.2,1.2 1,2.5 l 11,0 z m -79.7,0.5 c 0.1,-0.3 0.1,-0.5 0.2,-0.8 0.8,-2.6 0.8,-4.8 -0.2,-6.3 -1.5,-2.5 -5.4,-3.7 -12.7,-3.7 l -3.8,0 -12.8,0 -10,35.3 11.5,0 3.5,-12.3 3.5,0 c 2.3,0 3.5,0.3 4.3,0.8 1.2,0.9 1,2.5 0.2,5.4 -0.1,0.2 -0.1,0.3 -0.2,0.6 -0.8,2.7 -1,4.7 -0.9,5.5 l 0.9,0 10.8,0 0.3,-1.1 c -1.4,0 -0.8,-1.5 0.5,-6.2 2,-7.1 0,-8 -3.3,-9.3 4.2,-1.2 6.9,-4.2 8.2,-7.9 z m -16.5,4.5 c 3,-0.3 4.8,-1.1 5.5,-3.4 0.7,-2.5 -1,-3.7 -3.7,-3.7 l -1.8,0 -3.5,0 -2,7.1 4.5,0 c 0.3,0 0.7,0 1,0 z m -43.8,19.9 c 8,-0.4 13.9,-3.3 15.9,-10.5 1.1,-3.9 0,-7.2 -3.5,-8.2 2.6,-1.3 5.8,-4 6.7,-7.6 2.1,-7 -3.7,-8.9 -11.7,-8.9 l -7.4,0 -9.5,0 -10.1,35.3 17.3,0 c 0.8,0 1.6,0 2.3,-0.1 z m 0,-27 3.8,0 c 2.5,0 4.7,0.1 4,2.8 -0.6,2 -2.6,3.2 -4.9,3.2 l -2.9,0 -1.8,0 1.6,-6 0.2,0 z m 0,12.3 c 3.7,0 6.3,0.3 5.4,3.3 -0.7,2.5 -2.7,3.2 -5.4,3.2 -0.2,0 -0.3,0 -0.6,0 l -5,0 1.9,-6.5 3.6,0 c 0,0 0,0 0.1,0 z m -41.3,6.7 c 3.3,-1.4 5.7,-5.2 7,-9.8 1.3,-4.7 0.8,-9.9 -4.3,-9.7 -1,0 -1.9,0.2 -2.7,0.5 -3.7,1.5 -5.9,5.6 -6.9,9.2 -1.4,4.5 -1.5,10.3 4,10.3 1,0 2,-0.3 2.9,-0.5 z m 0,-27.5 c 1.7,-0.4 3.5,-0.7 5.2,-0.7 12.6,0 16,9.2 13.4,18.4 -2.9,10 -10.3,16.4 -18.6,18.3 -1.8,0.3 -3.5,0.6 -5.4,0.6 -11,0 -16.5,-6.9 -13.1,-19 2.7,-9.3 9.7,-15.8 18.5,-17.6 z m -40.7,30.1 c 0,-0.3 0.2,-0.4 0.2,-0.6 0.8,-2.9 1,-4.5 -0.2,-5.4 -0.7,-0.5 -2.1,-0.8 -4.2,-0.8 l -3.5,0 -3.5,12.3 -10.3,0 -1.2,0 1.2,-4.6 8.8,-30.7 12.7,0 3.9,0 c 11.8,0 14.6,3.2 12.8,10 -1.2,4.2 -3.9,7.5 -8.4,8.7 3.4,1.3 5.4,2.2 3.4,9.3 -1.4,4.7 -2,6.2 -0.5,6.2 l -0.4,1.1 -10.8,0 -1,0 c 0,-0.8 0.3,-2.8 1,-5.5 z m 0,-14.5 c 3,-0.3 4.8,-1.1 5.4,-3.4 0.8,-2.5 -0.9,-3.7 -3.6,-3.7 l -1.8,0 -3.6,0 -2,7.1 4.6,0 c 0.4,0 0.7,0 1,0 z m -21.5,-10.6 1.4,-4.7 -1.4,0 -31,0 -2.6,9.3 10.4,0 -7.4,26 11.5,0 7.4,-26 10.5,0 1.2,-4.6 z" />
  <rect
     style="fill:#008542"
     x="-42.941868"
     y="278.39572"
     width="95.5"
     height="60.5"
     id="rect2-0"
     inkscape:export-xdpi="200"
     inkscape:export-ydpi="200" />
  <rect
     style="fill:#fdc82f"
     x="-42.941868"
     y="243.59572"
     width="95.5"
     height="23.200001"
     id="rect4-1"
     inkscape:export-xdpi="200"
     inkscape:export-ydpi="200" />
  <path
     inkscape:connector-curvature="0"
     style="fill:#ffffff"
     id="BR-0"
     d="m 52.558132,278.39572 v -11.6 h -95.5 v 11.6 h 18.4 l -10.3,35.2 h 20.9 c 9.0000002,0 10.6000002,-2.1 12.5000002,-3.6 2.39999998,-2.1 3.7,-7 2.6,-10.4 -0.70000002,-2.4 -3,-3.8 -3.2,-3.8 2.69999998,-1.4 4.3,-4.3 4.6,-4.7 1,-2.2 1.9,-6.1 -0.8,-9.3 -2.10000002,-2.7 -6.3,-3.4 -9.3,-3.4 H 14.658132 l -10.1999998,35.4 H 14.758132 l 3.8,-13.5 h 6 c 4.2,0 3.9,2.7 4,3.8 l 0.4,9.9 h 9.5 c 0,0 -0.4,-11.1 -0.4,-11.9 -0.1,-2.8 -2,-4.1 -3.6,-4.1 3,-0.9 5.7,-3.6 6.7,-5.4 1.3,-2.1 2.3,-5.4 1,-8.6 -1.7,-4.8 -6.4,-5.6 -9.5,-5.6 z m -29.8,7.1 h 7.5 c 3.5,0 3.7,2.4 3.7,3.1 0,1.7 -1.4,4.8 -5.8,4.8 h -7.6 c 0,0 2.1,-7.8 2.2,-7.9 z m -43,13.3 h 6.9 c 3.4000002,0 3.5000002,0.8 4.0000002,1.7 0.5,0.8 0.2,2.4 0,3 -0.5,0.6 -1.1000002,2.9 -5.5000002,2.9 h -7.6 c 0,0 2.2,-7.6 2.2,-7.6 z m 3.8,-13.3 h 8.0000002 c 1.5,0 3,1 3,2.6 0,2.3 -1.9,3.9 -4.4,3.9 h -8.5000002 z"
     inkscape:export-xdpi="200"
     inkscape:export-ydpi="200" />
  <path
     inkscape:connector-curvature="0"
     id="PETROBRAS-7"
     style="fill:#008542;fill-rule:evenodd"
     d="m -106.46766,396.49159 h -29.5 l 10,-35.3 h 28.700003 l -2.2,8.2 h -17.300003 l -1.5,5.1 h 14.7 l -2.4,8.2 h -14.5 l -1.6,5.5 h 17.8 z m -46.4,-11 v 0 c -0.6,0 -1.2,0 -1.8,0 h -5.9 l -2.99999,11 h -11.6 l 10,-35.3 h 12.29999 v 0 h 4.6 c 10.3,0 13.8,4.7 11.8,11.9 -2.1,7.1 -7.4,11.8 -16.4,12.4 z m 0,-16.1 v 0 h -3.1 l -2.1,7.8 h 5.2 v 0 c 2.5,-0.1 4.5,-1.2 5.3,-4.1 1,-3.2 -2.6,-3.7 -5.1,-3.7 z m 279,15.1 h 3.6 l -0.1,-12.6 -3.5,6.1 -3.6,6.5 z m 0,-22.1 0.8,-1.2 h 11.7 l 2.6,35.3 h -11.5 v -4.6 h -3.6 -8 l -2.6,4.6 h -10.6 -0.8 l 0.8,-1.1 21.2,-33.1 z m 58.5,9.1 c 0.9,-6.3 -2.1,-11.3 -11.9,-11.3 -8.8,0 -16.5,3.8 -18.6,11.4 -3.7,13.4 17.7,9.8 16,15.1 -0.4,1.7 -2.6,2.7 -5.5,2.7 -1.1,0 -2.2,-0.4 -3,-0.9 -0.8,-0.8 -1.2,-1.6 -1.1,-2.9 h -11.1 c -1.5,6.4 3,11.9 12.2,11.9 9.8,0 17.8,-4 20,-12.3 3.8,-12.7 -17.5,-9.5 -16,-14.8 0.3,-1.3 1.7,-2 4.3,-2 1,0 2.1,0.2 2.7,0.6 0.8,0.5 1.2,1.2 1,2.5 z m -79.7,0.5 c 0.1,-0.3 0.1,-0.5 0.2,-0.8 0.8,-2.6 0.8,-4.8 -0.2,-6.3 -1.5,-2.5 -5.400002,-3.7 -12.700002,-3.7 h -3.799995 -12.8 l -10,35.3 h 11.5 l 3.5,-12.3 h 3.5 c 2.3,0 3.5,0.3 4.3,0.8 1.2,0.9 1,2.5 0.2,5.4 -0.1,0.2 -0.1,0.3 -0.2,0.6 -0.8,2.7 -1,4.7 -0.9,5.5 h 0.9 10.799995 l 0.3,-1.1 c -1.4,0 -0.8,-1.5 0.500002,-6.2 2,-7.1 0,-8 -3.300002,-9.3 4.200002,-1.2 6.900002,-4.2 8.200002,-7.9 z m -16.499997,4.5 c 2.999995,-0.3 4.799995,-1.1 5.499995,-3.4 0.7,-2.5 -1,-3.7 -3.7,-3.7 h -1.799995 -3.5 l -2,7.1 h 4.5 c 0.3,0 0.7,0 1,0 z m -43.8,19.9 c 8,-0.4 13.9,-3.3 15.9,-10.5 1.1,-3.9 0,-7.2 -3.5,-8.2 2.6,-1.3 5.8,-4 6.7,-7.6 2.1,-7 -3.7,-8.9 -11.7,-8.9 h -7.4 -9.5 l -10.1,35.3 h 17.3 c 0.8,0 1.6,0 2.3,-0.1 z m 0,-27 h 3.8 c 2.5,0 4.7,0.1 4,2.8 -0.6,2 -2.6,3.2 -4.9,3.2 h -2.9 -1.8 l 1.6,-6 z m 0,12.3 c 3.7,0 6.3,0.3 5.4,3.3 -0.7,2.5 -2.7,3.2 -5.4,3.2 -0.2,0 -0.3,0 -0.6,0 h -5 l 1.9,-6.5 h 3.6 c 0,0 0,0 0.1,0 z m -41.3000001,6.7 c 3.3,-1.4 5.7,-5.2 7.0000001,-9.8 1.3,-4.7 0.8,-9.9 -4.3000001,-9.7 -1,0 -1.9,0.2 -2.7,0.5 -3.70000042,1.5 -5.9000004,5.6 -6.9000004,9.2 -1.4,4.5 -1.5,10.3 4.00000038,10.3 1.00000002,0 2.00000002,-0.3 2.90000002,-0.5 z m 0,-27.5 c 1.7,-0.4 3.5,-0.7 5.2,-0.7 12.6000001,0 16.0000001,9.2 13.4000001,18.4 -2.9,10 -10.3,16.4 -18.6000001,18.3 -1.8,0.3 -3.50000002,0.6 -5.4000004,0.6 -11.0000005,0 -16.5000005,-6.9 -13.1000005,-19 2.7,-9.3 9.7000005,-15.8 18.5000009,-17.6 z m -40.6999999,30.1 c 0,-0.3 0.2,-0.4 0.2,-0.6 0.8,-2.9 1,-4.5 -0.2,-5.4 -0.7,-0.5 -2.1,-0.8 -4.2,-0.8 h -3.5 l -3.5,12.3 h -10.3 -1.2 l 1.2,-4.6 8.8,-30.7 h 12.7 3.9 c 11.8,0 14.599999,3.2 12.8,10 -1.2,4.2 -3.9,7.5 -8.4,8.7 3.4,1.3 5.4,2.2 3.4,9.3 -1.4,4.7 -2,6.2 -0.5,6.2 l -0.4,1.1 h -10.8 -1 c 0,-0.8 0.3,-2.8 1,-5.5 z m 0,-14.5 c 3,-0.3 4.8,-1.1 5.4,-3.4 0.8,-2.5 -0.9,-3.7 -3.6,-3.7 h -1.8 -3.6 l -2,7.1 h 4.6 c 0.4,0 0.7,0 1,0 z m -21.5,-10.6 1.4,-4.7 h -1.4 -31 l -2.6,9.3 h 10.4 l -7.4,26 h 11.5 l 7.4,-26 h 10.5 z"
     inkscape:export-xdpi="200"
     inkscape:export-ydpi="200" />
</svg>
